<?xml version="1.0" encoding="UTF-8"?>
<svg version="1.1" xmlns="http://www.w3.org/2000/svg" width="332" height="125">
<path d="M0 0 C2.10205078 0.94873047 2.10205078 0.94873047 4.1953125 2.1171875 C4.98405762 2.55377686 5.77280273 2.99036621 6.58544922 3.44018555 C7.42350098 3.91367432 8.26155273 4.38716309 9.125 4.875 C10.0030127 5.36460205 10.88102539 5.8542041 11.78564453 6.35864258 C20.19967028 11.06829981 28.5391295 15.90652201 36.86914062 20.76269531 C39.94389026 22.54807927 43.03404355 24.30531243 46.125 26.0625 C47.79379253 27.02032767 49.46258442 27.97815646 51.13134766 28.93603516 C53.28266132 30.16094043 55.44452728 31.36638539 57.60546875 32.57421875 C59.17477406 33.46562687 60.74378836 34.35754753 62.3125 35.25 C63.06096191 35.66258057 63.80942383 36.07516113 64.58056641 36.50024414 C65.2719873 36.89719482 65.9634082 37.29414551 66.67578125 37.703125 C67.29364502 38.05020508 67.91150879 38.39728516 68.5480957 38.75488281 C70.40473718 40.34709259 70.62651315 41.62740684 71 44 C70.34 44 69.68 44 69 44 C69 47.96 69 51.92 69 56 C71.64 56 74.28 56 77 56 C76.67 58.31 76.34 60.62 76 63 C73.69 63 71.38 63 69 63 C69 72.9 69 82.8 69 93 C65.37 93.33 61.74 93.66 58 94 C57.34956362 83.6510926 56.83505115 73.3734499 57 63 C54.69 63 52.38 63 50 63 C50 60.69 50 58.38 50 56 C52.31 56 54.62 56 57 56 C57 52.04 57 48.08 57 44 C55.02 44 53.04 44 51 44 C48.54077148 42.99707031 48.54077148 42.99707031 46.12109375 41.578125 C44.75440552 40.7903064 44.75440552 40.7903064 43.36010742 39.98657227 C42.39564697 39.41350342 41.43118652 38.84043457 40.4375 38.25 C38.92796753 37.37396118 38.92796753 37.37396118 37.38793945 36.48022461 C35.29294019 35.26424372 33.2007613 34.04339157 31.11132812 32.81787109 C26.32784865 30.02300385 21.50555688 27.29715568 16.6875 24.5625 C15.04464588 23.62792982 13.40268356 22.69178981 11.76171875 21.75390625 C10.98231934 21.31191895 10.20291992 20.86993164 9.39990234 20.41455078 C7.70241269 19.41401619 6.03278836 18.36548749 4.38525391 17.28466797 C3.09047119 16.44572998 3.09047119 16.44572998 1.76953125 15.58984375 C0.61287964 14.81241821 0.61287964 14.81241821 -0.56713867 14.01928711 C-3.84529873 12.64584825 -5.59695733 13.05321395 -9 14 C-12.04682918 15.36022051 -12.04682918 15.36022051 -15.12109375 17.140625 C-15.69462585 17.45948166 -16.26815796 17.77833832 -16.85906982 18.1068573 C-18.72341488 19.14613017 -20.58039816 20.19784797 -22.4375 21.25 C-23.72719925 21.97218823 -25.01732428 22.6936166 -26.30786133 23.41430664 C-29.57936693 25.24432873 -32.84468223 27.08507026 -36.10766602 28.93023682 C-37.92830977 29.9594725 -39.75004393 30.98674466 -41.57226562 32.01318359 C-47.42880332 35.31277249 -53.28019501 38.62110694 -59.12182617 41.94702148 C-62.96004442 44.0988784 -66.28991906 44.31855172 -70.625 44.5625 C-71.33140625 44.60568359 -72.0378125 44.64886719 -72.765625 44.69335938 C-74.51018537 44.79944751 -76.25506697 44.90022889 -78 45 C-77.01 45.5775 -76.02 46.155 -75 46.75 C-74.01 47.4925 -73.02 48.235 -72 49 C-72 53 -72 53 -73.3125 54.703125 C-73.869375 55.21359375 -74.42625 55.7240625 -75 56.25 C-75.556875 56.77078125 -76.11375 57.2915625 -76.6875 57.828125 C-77.120625 58.21484375 -77.55375 58.6015625 -78 59 C-81.8263442 57.44111903 -84.14637496 54.92872044 -87 52 C-90.3252054 50.3373973 -93.6404784 50.65040873 -97.1875 51.5625 C-100.06090666 53.84140873 -101.14544617 56.53843776 -102 60 C-102.94144682 68.4348546 -101.78034987 75.95585474 -96.9375 83 C-94.21276935 85.81262519 -93.44896313 85.98424691 -89.4375 86.125 C-86.16983444 86.39681568 -86.16983444 86.39681568 -85 85 C-84.92741054 82.81360547 -84.91626217 80.62499611 -84.9375 78.4375 C-84.94652344 77.23996094 -84.95554687 76.04242188 -84.96484375 74.80859375 C-84.97644531 73.88175781 -84.98804687 72.95492187 -85 72 C-87.64 72 -90.28 72 -93 72 C-93 70.02 -93 68.04 -93 66 C-85.08 66 -77.16 66 -69 66 C-69 68.31 -69 70.62 -69 73 C-70.32 73 -71.64 73 -73 73 C-72.9071875 73.95261719 -72.814375 74.90523438 -72.71875 75.88671875 C-72.14393201 85.87418141 -72.14393201 85.87418141 -74.5 88.97265625 C-76.63111089 90.33373684 -78.60047616 91.20700668 -81 92 C-82.00546875 92.35771484 -82.00546875 92.35771484 -83.03125 92.72265625 C-90.63187156 94.9998266 -97.94324885 94.79395223 -105 91 C-109.72232386 87.02895493 -113.84803374 82.18770449 -115 76 C-115.75257724 66.78401309 -115.26078648 59.39980861 -109.421875 52 C-102.00117932 43.9776263 -94.51010791 43.45833553 -84 43 C-83.67 42.01 -83.34 41.02 -83 40 C-81.04833984 38.58056641 -81.04833984 38.58056641 -78.4609375 37.1015625 C-77.49841064 36.54573486 -76.53588379 35.98990723 -75.54418945 35.41723633 C-74.49835693 34.82579834 -73.45252441 34.23436035 -72.375 33.625 C-70.77434692 32.70593872 -70.77434692 32.70593872 -69.14135742 31.76831055 C-65.76685069 29.83488841 -62.38459951 27.91569205 -59 26 C-57.36200439 25.0706665 -57.36200439 25.0706665 -55.69091797 24.12255859 C-49.90082034 20.83884498 -44.10455767 17.56646271 -38.2980957 14.31176758 C-36.65844092 13.37584224 -35.03921829 12.40374103 -33.43505859 11.40820312 C-30.22957659 9.55446138 -26.85303499 8.67253952 -23.3125 7.6875 C-17.25088196 5.92836635 -12.28228834 3.76662357 -7.11328125 0.0390625 C-4.3009246 -1.34372284 -2.99322452 -0.79352541 0 0 Z " fill="#5E9542" transform="translate(116,29)"/>
<path d="M0 0 C0.66 0.33 1.32 0.66 2 1 C2.44389153 10.32172219 0.84479589 17.79365612 -5.16796875 25.15234375 C-13.34180545 33.39589335 -25.37569444 36.50030978 -36.6953125 37.2421875 C-39.47790001 37.24876572 -42.22451682 37.18923749 -45 37 C-46.09219587 39.72586172 -47.17790026 42.45364566 -48.25 45.1875 C-50 48 -50 48 -53.1875 49.375 C-54.115625 49.58125 -55.04375 49.7875 -56 50 C-55.54979057 44.14727744 -52.96160773 39.91779881 -50 35 C-50.99 35.495 -50.99 35.495 -52 36 C-52.60792552 28.46172353 -51.39876512 23.23674679 -47 17 C-37.9782841 7.35228748 -25.53894007 5.62765783 -13.0300293 4.12597656 C-8.06342004 3.49316346 -4.47082218 2.38766819 0 0 Z " fill="#5E9643" transform="translate(115,2)"/>
<path d="M0 0 C1.0511499 0.00918457 1.0511499 0.00918457 2.12353516 0.01855469 C7.84110358 0.19145162 11.44330035 1.11167625 16.0625 4.4375 C16.7225 5.7575 17.3825 7.0775 18.0625 8.4375 C15.7525 10.7475 13.4425 13.0575 11.0625 15.4375 C7.13744769 13.47497385 5.07974387 11.53414503 2.0625 8.4375 C-1.2627054 6.7748973 -4.5779784 7.08790873 -8.125 8 C-10.99840666 10.27890873 -12.08294617 12.97593776 -12.9375 16.4375 C-13.87894682 24.8723546 -12.71784987 32.39335474 -7.875 39.4375 C-5.15026935 42.25012519 -4.38646313 42.42174691 -0.375 42.5625 C2.89266556 42.83431568 2.89266556 42.83431568 4.0625 41.4375 C4.13508946 39.25110547 4.14623783 37.06249611 4.125 34.875 C4.11597656 33.67746094 4.10695313 32.47992188 4.09765625 31.24609375 C4.08605469 30.31925781 4.07445313 29.39242187 4.0625 28.4375 C1.4225 28.4375 -1.2175 28.4375 -3.9375 28.4375 C-3.9375 26.4575 -3.9375 24.4775 -3.9375 22.4375 C3.9825 22.4375 11.9025 22.4375 20.0625 22.4375 C20.0625 24.7475 20.0625 27.0575 20.0625 29.4375 C18.7425 29.4375 17.4225 29.4375 16.0625 29.4375 C16.1553125 30.39011719 16.248125 31.34273437 16.34375 32.32421875 C16.91856799 42.31168141 16.91856799 42.31168141 14.5625 45.41015625 C12.43138911 46.77123684 10.46202384 47.64450668 8.0625 48.4375 C7.3921875 48.67597656 6.721875 48.91445312 6.03125 49.16015625 C-1.56937156 51.4373266 -8.88074885 51.23145223 -15.9375 47.4375 C-20.65982386 43.46645493 -24.78553374 38.62520449 -25.9375 32.4375 C-26.69007724 23.22151309 -26.19828648 15.83730861 -20.359375 8.4375 C-14.64178058 2.25631684 -8.43876866 -0.1253783 0 0 Z " fill="#000000" transform="translate(26.9375,72.5625)"/>
<path d="M0 0 C3.96 0 7.92 0 12 0 C12.33 7.92 12.66 15.84 13 24 C17.43408466 20.10355856 17.43408466 20.10355856 21.85449219 16.19165039 C22.41297852 15.70688232 22.97146484 15.22211426 23.546875 14.72265625 C24.11245117 14.22515869 24.67802734 13.72766113 25.26074219 13.21508789 C27.2079668 11.85470933 28.64816982 11.30277875 31 11 C33.25 12.3125 33.25 12.3125 35 14 C35 14.66 35 15.32 35 16 C33.03125 17.7265625 33.03125 17.7265625 30.5 19.625 C29.24703125 20.57246094 29.24703125 20.57246094 27.96875 21.5390625 C27.3190625 22.02117187 26.669375 22.50328125 26 23 C27.50556145 28.0290482 29.65729305 32.48669393 32.0625 37.125 C32.78635876 38.52147089 33.50654279 39.91985402 34.22265625 41.3203125 C34.53984619 41.93148926 34.85703613 42.54266602 35.18383789 43.17236328 C36 45 36 45 37 49 C30.565 49.495 30.565 49.495 24 50 C18.57142857 37.28571429 18.57142857 37.28571429 17 31 C13.87802522 32.3089572 13.87802522 32.3089572 12 35 C11.76970044 37.37123246 11.58880058 39.74741943 11.4375 42.125 C11.35371094 43.40632813 11.26992188 44.68765625 11.18359375 46.0078125 C11.12300781 46.99523437 11.06242187 47.98265625 11 49 C7.05979642 50.26086514 4.52419701 50 0 50 C0 33.5 0 17 0 0 Z " fill="#000000" transform="translate(270,73)"/>
<path d="M0 0 C1.98 1.32 3.96 2.64 6 4 C5.773125 4.86625 5.54625 5.7325 5.3125 6.625 C4.69062229 10.01433766 4.69062229 10.01433766 6.4375 12.75 C8.60395398 17.25622429 8.81178776 21.08375261 8 26 C5.41550735 32.21129098 1.31693001 36.55785652 -4.875 39.25 C-9.06626259 40.25590302 -13.02831305 40.61967304 -17.1875 39.3125 C-19.1802095 38.75935333 -19.1802095 38.75935333 -21.25 40.4375 C-21.8275 40.953125 -22.405 41.46875 -23 42 C-24.65 40.35 -26.3 38.7 -28 37 C-27.34 36.01 -26.68 35.02 -26 34 C-26.433125 33.27296875 -26.433125 33.27296875 -26.875 32.53125 C-29.74471647 27.34981749 -30.65746022 23.91714201 -30 18 C-28.13356128 12.49400578 -26.03971613 7.72835845 -20.8359375 4.76953125 C-14.97897083 2.11304327 -10.26294988 1.42076479 -4 3 C-3.34 3.33 -2.68 3.66 -2 4 C-1.34 2.68 -0.68 1.36 0 0 Z M-17 10 C-18.99255736 13.15020512 -19.22205722 15.56182556 -19.125 19.25 C-19.10695313 20.14203125 -19.08890625 21.0340625 -19.0703125 21.953125 C-19.04710938 22.62859375 -19.02390625 23.3040625 -19 24 C-15.06686654 22.68895551 -13.63242994 20.17504178 -11.3125 16.9375 C-10.89677734 16.36966797 -10.48105469 15.80183594 -10.05273438 15.21679688 C-9.02859918 13.81596827 -8.01342465 12.40859652 -7 11 C-10.33587326 7.66412674 -13.08118715 7.25683101 -17 10 Z M-4 17 C-5.72574885 19.31279846 -7.40551345 21.63873718 -9.0625 24 C-9.53494141 24.66773438 -10.00738281 25.33546875 -10.49414062 26.0234375 C-11.66571356 27.68020731 -12.83323159 29.33984313 -14 31 C-12.65783438 32.55598176 -12.65783438 32.55598176 -11 34 C-7.93521446 33.92338036 -6.52063348 33.52805343 -4.35546875 31.33203125 C-2.59596131 28.30486715 -2.69915676 26.2258595 -2.8125 22.75 C-2.83957031 21.67234375 -2.86664063 20.5946875 -2.89453125 19.484375 C-2.92933594 18.66453125 -2.96414062 17.8446875 -3 17 C-3.33 17 -3.66 17 -4 17 Z " fill="#000000" transform="translate(116,83)"/>
<path d="M0 0 C7.31718578 8.63427922 6.63524505 21.27117328 7 32 C1.06 32.495 1.06 32.495 -5 33 C-5.33 32.01 -5.66 31.02 -6 30 C-6.56847656 30.2165625 -7.13695312 30.433125 -7.72265625 30.65625 C-13.91117564 32.88783629 -18.86901342 34.20422561 -25.25 31.75 C-29.69230769 28.92307692 -29.69230769 28.92307692 -31 26 C-31.48469206 21.83972652 -31.07045134 18.46314409 -28.5625 15.03515625 C-23.24279025 9.97034926 -16.82405049 7.46803159 -10 5 C-10.79745503 2.84497667 -10.79745503 2.84497667 -12.8125 2.296875 C-17.36733992 1.67871815 -21.73966151 4.10449633 -25.375 6.6875 C-25.91125 7.120625 -26.4475 7.55375 -27 8 C-27.66 8 -28.32 8 -29 8 C-29.66 5.69 -30.32 3.38 -31 1 C-20.59477199 -4.57276046 -10.0781519 -8.39845992 0 0 Z M-14.125 14.9375 C-14.82882813 15.48277344 -15.53265625 16.02804688 -16.2578125 16.58984375 C-17.91905947 17.88414315 -17.91905947 17.88414315 -19 19 C-19.04080783 20.99958364 -19.04254356 23.00045254 -19 25 C-15.30943186 26.84528407 -11.95488562 26.31137574 -8.125 25.0625 C-5.82016482 23.23649821 -5.82016482 23.23649821 -5.65625 20.8671875 C-5.57452806 16.27807647 -5.57452806 16.27807647 -7 12 C-10.58365796 12 -11.36645071 12.77443091 -14.125 14.9375 Z " fill="#000000" transform="translate(259,90)"/>
<path d="M0 0 C4.58915943 2.71177603 6.33621073 6.0880931 8 11 C8.50364739 13.64212882 8.90687894 16.15208337 9.1875 18.8125 C9.30810791 19.85374023 9.30810791 19.85374023 9.43115234 20.91601562 C10.01865021 26.31247788 10.16938131 31.57979813 10 37 C6.04 36.67 2.08 36.34 -2 36 C-2.12117188 34.40929687 -2.24234375 32.81859375 -2.3671875 31.1796875 C-2.5360656 29.0780934 -2.70535821 26.97653259 -2.875 24.875 C-2.95363281 23.82828125 -3.03226563 22.7815625 -3.11328125 21.703125 C-3.64340076 14.14041915 -3.64340076 14.14041915 -6 7 C-6.99 6.67 -7.98 6.34 -9 6 C-12.68328601 7.78594659 -12.68328601 7.78594659 -15 11 C-15.15344209 12.88472859 -15.24959571 14.77427874 -15.31640625 16.6640625 C-15.35830078 17.78554687 -15.40019531 18.90703125 -15.44335938 20.0625 C-15.50233398 21.8259375 -15.50233398 21.8259375 -15.5625 23.625 C-15.60568359 24.80835937 -15.64886719 25.99171875 -15.69335938 27.2109375 C-15.79967338 30.14047907 -15.90036217 33.07022377 -16 36 C-21.445 36.495 -21.445 36.495 -27 37 C-27.88299923 32.58500383 -28.11545839 28.98005512 -28.09765625 24.51171875 C-28.0962413 23.80852005 -28.09482635 23.10532135 -28.09336853 22.3808136 C-28.08780109 20.14966456 -28.07525475 17.91861836 -28.0625 15.6875 C-28.05748079 14.16862125 -28.05291862 12.64974091 -28.04882812 11.13085938 C-28.03784236 7.42053988 -28.02060034 3.71027999 -28 0 C-24.04 0 -20.08 0 -16 0 C-15.67 0.66 -15.34 1.32 -15 2 C-13.824375 1.484375 -12.64875 0.96875 -11.4375 0.4375 C-7.25654396 -1.11373811 -4.37050151 -1.23693439 0 0 Z " fill="#000000" transform="translate(156,86)"/>
<path d="M0 0 C6.6752034 -0.02526945 13.35039457 -0.04283268 20.02563477 -0.05493164 C22.29842591 -0.05997325 24.5712138 -0.06680637 26.84399414 -0.07543945 C30.10303551 -0.08751261 33.36203417 -0.09322987 36.62109375 -0.09765625 C37.64400009 -0.10281754 38.66690643 -0.10797882 39.72080994 -0.11329651 C40.66170975 -0.11337204 41.60260956 -0.11344757 42.57202148 -0.11352539 C43.40475082 -0.115746 44.23748016 -0.11796661 45.09544373 -0.12025452 C47 0 47 0 48 1 C48 2.98 48 4.96 48 7 C42.06 7 36.12 7 30 7 C30 21.19 30 35.38 30 50 C25.71 49.67 21.42 49.34 17 49 C17 35.14 17 21.28 17 7 C11.06 7 5.12 7 -1 7 C-0.67 4.69 -0.34 2.38 0 0 Z " fill="#000000" transform="translate(190,73)"/>
<path d="M0 0 C3.96 0 7.92 0 12 0 C12 3.96 12 7.92 12 12 C14.64 12 17.28 12 20 12 C19.67 14.31 19.34 16.62 19 19 C16.69 19 14.38 19 12 19 C12 28.9 12 38.8 12 49 C6.555 49.495 6.555 49.495 1 50 C0.34956362 39.6510926 -0.16494885 29.3734499 0 19 C-2.31 19 -4.62 19 -7 19 C-7 16.69 -7 14.38 -7 12 C-4.69 12 -2.38 12 0 12 C0 8.04 0 4.08 0 0 Z " fill="#000000" transform="translate(173,73)"/>
<path d="M0 0 C6.67078825 4.74652241 6.67078825 4.74652241 8 9 C8.125 11.75 8.125 11.75 8 14 C4.12315913 15.19287411 1.08378077 16 -3 16 C-3.29003906 15.04287109 -3.29003906 15.04287109 -3.5859375 14.06640625 C-3.97652344 12.82697266 -3.97652344 12.82697266 -4.375 11.5625 C-4.63023438 10.73878906 -4.88546875 9.91507813 -5.1484375 9.06640625 C-5.80882227 6.82201984 -5.80882227 6.82201984 -8 6 C-11.52381687 8.54604597 -11.52381687 8.54604597 -14 12 C-14.15344209 13.88472859 -14.24959571 15.77427874 -14.31640625 17.6640625 C-14.35830078 18.78554687 -14.40019531 19.90703125 -14.44335938 21.0625 C-14.50233398 22.8259375 -14.50233398 22.8259375 -14.5625 24.625 C-14.60568359 25.80835937 -14.64886719 26.99171875 -14.69335938 28.2109375 C-14.79967338 31.14047907 -14.90036217 34.07022377 -15 37 C-18.63 36.67 -22.26 36.34 -26 36 C-26 24.12 -26 12.24 -26 0 C-22.37 0 -18.74 0 -15 0 C-14.67 0.66 -14.34 1.32 -14 2 C-12.80375 1.484375 -11.6075 0.96875 -10.375 0.4375 C-6.48915017 -0.99232855 -4.02172342 -1.39886032 0 0 Z " fill="#000000" transform="translate(77,86)"/>
<path d="M0 0 C2.97 0 5.94 0 9 0 C9 2.97 9 5.94 9 9 C6.03 9 3.06 9 0 9 C0 6.03 0 3.06 0 0 Z " fill="#568D38" transform="translate(101,63)"/>
<path d="M0 0 C2.97 0 5.94 0 9 0 C9 2.97 9 5.94 9 9 C6.03 9 3.06 9 0 9 C0 6.03 0 3.06 0 0 Z " fill="#558D3A" transform="translate(101,53)"/>
<path d="M0 0 C2.05078125 0.03255208 4.1015625 0.06510417 6.15234375 0.09765625 C6.85309219 3.25102425 7.15234375 5.82490599 7.15234375 9.09765625 C3.85234375 9.09765625 0.55234375 9.09765625 -2.84765625 9.09765625 C-2.9453125 2.9453125 -2.9453125 2.9453125 -2.84765625 1.09765625 C-1.84765625 0.09765625 -1.84765625 0.09765625 0 0 Z " fill="#5C9143" transform="translate(113.84765625,52.90234375)"/>
<path d="M0 0 C2.05078125 0.03255208 4.1015625 0.06510417 6.15234375 0.09765625 C6.48234375 3.06765625 6.81234375 6.03765625 7.15234375 9.09765625 C3.85234375 9.09765625 0.55234375 9.09765625 -2.84765625 9.09765625 C-2.9453125 2.9453125 -2.9453125 2.9453125 -2.84765625 1.09765625 C-1.84765625 0.09765625 -1.84765625 0.09765625 0 0 Z " fill="#5B903E" transform="translate(113.84765625,62.90234375)"/>
</svg>
