<svg width="153" height="26" viewBox="0 0 153 26" fill="none" xmlns="http://www.w3.org/2000/svg">
<path d="M10.9761 24.64C8.84277 24.64 6.94411 24.1387 5.28011 23.136C3.63744 22.1333 2.34677 20.7467 1.40811 18.976C0.469441 17.2053 0.000107467 15.168 0.000107467 12.864C0.000107467 10.9867 0.309441 9.26934 0.928108 7.71201C1.56811 6.13334 2.46411 4.76801 3.61611 3.61601C4.76811 2.46401 6.12277 1.57868 7.68011 0.960011C9.25877 0.32001 10.9868 9.53674e-06 12.8641 9.53674e-06C14.7628 9.53674e-06 16.5014 0.32001 18.0801 0.960011C19.6801 1.60001 20.9068 2.46401 21.7601 3.55201C20.3521 5.15201 18.9334 6.43201 17.5041 7.39201C16.0108 4.32001 13.9414 2.78401 11.2961 2.78401C9.52544 2.78401 8.13877 3.47734 7.13611 4.86401C6.13344 6.22934 5.63211 8.14934 5.63211 10.624C5.63211 12.16 5.81344 13.6 6.17611 14.944C6.56011 16.288 7.07211 17.4827 7.71211 18.528C8.35211 19.552 9.08811 20.3627 9.92011 20.96C10.7734 21.536 11.6801 21.824 12.6401 21.824C13.3654 21.824 13.9948 21.6747 14.5281 21.376C15.0828 21.056 15.4028 20.6613 15.4881 20.192C15.4668 19.7227 15.4241 19.1467 15.3601 18.464C15.3174 17.76 15.2534 17.024 15.1681 16.256C15.1041 15.488 15.0401 14.7413 14.9761 14.016C13.1628 13.9733 11.8294 13.92 10.9761 13.856L10.8801 11.424C13.1201 11.424 15.2534 11.4027 17.2801 11.36C19.3281 11.3173 21.1201 11.2533 22.6561 11.168L22.5601 14.112C21.8348 14.112 21.1308 14.112 20.4481 14.112C20.5121 15.0293 20.5548 16.1067 20.5761 17.344C20.6188 18.56 20.6401 19.7653 20.6401 20.96C19.8508 21.7067 18.9228 22.3573 17.8561 22.912C16.7894 23.4667 15.6694 23.8933 14.4961 24.192C13.3228 24.4907 12.1494 24.64 10.9761 24.64ZM30.2266 24.544C29.4799 24.544 28.6266 24.5227 27.6666 24.48C26.7279 24.4587 25.8533 24.4373 25.0426 24.416C25.0213 23.776 24.9999 22.8587 24.9786 21.664C24.9573 20.4693 24.9359 19.0827 24.9146 17.504C24.9146 15.904 24.9039 14.1973 24.8826 12.384C24.8826 10.5493 24.8826 8.68268 24.8826 6.78401C25.3519 6.76268 25.9279 6.74134 26.6106 6.72001C27.2933 6.69868 27.9759 6.68801 28.6586 6.68801C29.3413 6.66668 29.9173 6.65601 30.3866 6.65601C30.3866 7.27468 30.3866 7.89334 30.3866 8.51201C31.2186 7.85068 32.0719 7.33868 32.9466 6.97601C33.8426 6.59201 34.7066 6.40001 35.5386 6.40001C36.6266 6.40001 37.6186 6.69868 38.5146 7.29601C39.4106 7.87201 40.1359 8.66134 40.6906 9.66401C41.2666 10.6667 41.5973 11.7973 41.6826 13.056C40.8293 13.3333 39.9759 13.5787 39.1226 13.792C38.2693 14.0053 37.4586 14.176 36.6906 14.304C36.6906 13.344 36.5626 12.4587 36.3066 11.648C36.0719 10.8373 35.7519 10.1867 35.3466 9.69601C34.9413 9.20534 34.4933 8.96001 34.0026 8.96001C33.4266 8.96001 32.7866 9.31201 32.0826 10.016C31.3786 10.72 30.8133 11.584 30.3866 12.608C30.3653 15.3173 30.3439 17.7387 30.3226 19.872C30.3013 21.984 30.2693 23.5413 30.2266 24.544ZM46.3126 25.6L43.7526 23.84L45.1606 21.984C44.3713 21.1733 43.7526 20.2453 43.3046 19.2C42.8566 18.1333 42.6326 16.992 42.6326 15.776C42.6326 14.4747 42.8779 13.2587 43.3686 12.128C43.8593 10.9973 44.5419 10.0053 45.4166 9.15201C46.3126 8.27734 47.3366 7.60534 48.4886 7.13601C49.6406 6.64534 50.8673 6.40001 52.1686 6.40001C53.5766 6.40001 54.8993 6.68801 56.1366 7.26401L57.5126 5.44001L60.0726 7.20001L58.6646 9.05601C59.4539 9.86668 60.0726 10.8053 60.5206 11.872C60.9686 12.9173 61.1926 14.048 61.1926 15.264C61.1926 16.5653 60.9473 17.7813 60.4566 18.912C59.9659 20.0427 59.2726 21.0453 58.3766 21.92C57.5019 22.7733 56.4886 23.4453 55.3366 23.936C54.2059 24.4053 52.9793 24.64 51.6566 24.64C50.2486 24.64 48.9259 24.352 47.6886 23.776L46.3126 25.6ZM47.6246 14.496C47.6246 15.7547 47.7953 16.9173 48.1366 17.984L53.9926 10.176C53.1819 9.38668 52.2646 8.99201 51.2406 8.99201C50.1099 8.99201 49.2246 9.48268 48.5846 10.464C47.9446 11.424 47.6246 12.768 47.6246 14.496ZM52.5846 22.048C53.7153 22.048 54.6006 21.568 55.2406 20.608C55.8806 19.6267 56.2006 18.272 56.2006 16.544C56.2006 15.2853 56.0299 14.1227 55.6886 13.056L49.8326 20.864C50.6433 21.6533 51.5606 22.048 52.5846 22.048ZM63.8864 24.544C63.865 23.8613 63.8437 22.9227 63.8224 21.728C63.801 20.512 63.7797 19.1147 63.7584 17.536C63.7584 15.936 63.7477 14.2187 63.7264 12.384C63.7264 10.528 63.7264 8.61868 63.7264 6.65601C64.1957 6.65601 64.7717 6.66668 65.4544 6.68801C66.137 6.68801 66.8197 6.69868 67.5024 6.72001C68.2064 6.74134 68.7824 6.76268 69.2304 6.78401C69.2304 7.31734 69.2304 7.86134 69.2304 8.41601C71.0437 7.07201 72.889 6.40001 74.7664 6.40001C76.4944 6.40001 77.8917 7.00801 78.9584 8.22401C80.025 9.44001 80.793 11.3813 81.2624 14.048C81.753 16.7147 81.9984 20.2133 81.9984 24.544C81.5077 24.544 80.921 24.5333 80.2384 24.512C79.5557 24.512 78.8837 24.5013 78.2224 24.48C77.561 24.4587 76.985 24.4373 76.4944 24.416C76.4944 20.64 76.3877 17.6213 76.1744 15.36C75.961 13.0987 75.609 11.4667 75.1184 10.464C74.6277 9.46134 73.9664 8.96001 73.1344 8.96001C72.4517 8.96001 71.7584 9.24801 71.0544 9.82401C70.3504 10.4 69.7424 11.1573 69.2304 12.096C69.209 13.9093 69.1877 15.6267 69.1664 17.248C69.1664 18.8693 69.1557 20.3093 69.1344 21.568C69.113 22.8053 69.0917 23.7547 69.0704 24.416C68.409 24.4373 67.5984 24.4587 66.6384 24.48C65.6997 24.5227 64.7824 24.544 63.8864 24.544ZM86.4406 24.544C86.4193 24.096 86.3979 23.3813 86.3766 22.4C86.3766 21.3973 86.3659 20.2027 86.3446 18.816C86.3446 17.4293 86.3339 15.9253 86.3126 14.304C86.3126 12.6827 86.3126 11.0187 86.3126 9.31201H82.8246L82.6326 6.36801H86.2806C86.2806 4.21334 86.2806 2.17601 86.2806 0.25601C87.0699 0.25601 87.9873 0.266677 89.0326 0.28801C90.0993 0.309343 91.0166 0.341343 91.7846 0.38401C91.7846 2.21868 91.7846 4.21334 91.7846 6.36801H95.4326L95.2406 9.31201H91.7526C91.7526 10.976 91.7419 12.6187 91.7206 14.24C91.7206 15.84 91.7099 17.3227 91.6886 18.688C91.6886 20.0533 91.6779 21.2373 91.6566 22.24C91.6566 23.2427 91.6459 23.968 91.6246 24.416C90.8993 24.4587 90.0993 24.4907 89.2246 24.512C88.3499 24.5333 87.4219 24.544 86.4406 24.544ZM109.381 24.544C108.848 24.544 108.186 24.5333 107.397 24.512C106.629 24.512 105.84 24.5013 105.029 24.48C104.24 24.4587 103.546 24.4373 102.949 24.416C102.949 23.456 102.949 22.2827 102.949 20.896C102.97 19.488 102.981 17.984 102.981 16.384C103.002 14.7627 103.013 13.152 103.013 11.552C103.034 9.93068 103.056 8.41601 103.077 7.00801C103.098 5.57868 103.12 4.36268 103.141 3.36001C101.541 3.38134 99.9835 3.40268 98.4689 3.42401C96.9542 3.42401 95.5675 3.42401 94.3089 3.42401L94.4369 0.22401C95.8022 0.22401 97.2742 0.234677 98.8529 0.25601C100.432 0.25601 102.042 0.266677 103.685 0.28801C105.328 0.28801 106.917 0.298676 108.453 0.320009C110.01 0.320009 111.44 0.330676 112.741 0.352011C114.042 0.352011 115.141 0.362677 116.037 0.38401C116.954 0.38401 117.573 0.394677 117.893 0.41601L117.989 3.10401C116.816 3.14668 115.472 3.18934 113.957 3.23201C112.442 3.25334 110.853 3.27468 109.189 3.29601C109.21 4.25601 109.232 5.40801 109.253 6.75201C109.274 8.09601 109.285 9.55734 109.285 11.136C109.306 12.6933 109.317 14.272 109.317 15.872C109.338 17.472 109.349 19.0187 109.349 20.512C109.37 22.0053 109.381 23.3493 109.381 24.544ZM119.808 24.64C117.995 24.64 116.512 24.2027 115.36 23.328C114.229 22.432 113.664 21.2693 113.664 19.84C113.664 18.5387 114.133 17.3333 115.072 16.224C116.032 15.1147 117.355 14.176 119.04 13.408C120.725 12.6187 122.656 12.0747 124.832 11.776C124.064 9.89868 123.008 8.96001 121.664 8.96001C120.853 8.96001 119.808 9.26934 118.528 9.88801C117.248 10.5067 115.947 11.3173 114.624 12.32L113.664 9.12001C116.843 7.30668 119.851 6.40001 122.688 6.40001C124.907 6.40001 126.688 7.00801 128.032 8.22401C129.376 9.41868 130.357 11.3387 130.976 13.984C131.595 16.608 131.904 20.0853 131.904 24.416C131.499 24.4373 130.773 24.4587 129.728 24.48C128.704 24.5227 127.595 24.544 126.4 24.544C126.4 23.8613 126.389 23.1893 126.368 22.528C124.171 23.936 121.984 24.64 119.808 24.64ZM118.944 19.616C118.944 20.2773 119.2 20.8 119.712 21.184C120.245 21.568 120.949 21.76 121.824 21.76C123.36 21.76 124.843 21.0987 126.272 19.776C126.144 17.5147 125.899 15.6053 125.536 14.048C124.704 14.2187 123.893 14.496 123.104 14.88C122.336 15.264 121.632 15.7227 120.992 16.256C120.373 16.768 119.872 17.3227 119.488 17.92C119.125 18.496 118.944 19.0613 118.944 19.616ZM134.62 24.544C134.599 24.0533 134.577 23.2427 134.556 22.112C134.556 20.9813 134.545 19.6587 134.524 18.144C134.524 16.6293 134.513 15.0293 134.492 13.344C134.492 11.6373 134.481 9.96268 134.46 8.32001C134.46 6.65601 134.46 5.12001 134.46 3.71201C134.46 2.30401 134.46 1.15201 134.46 0.25601C135.399 0.25601 136.369 0.266677 137.372 0.28801C138.375 0.309343 139.239 0.341343 139.964 0.38401C139.964 1.32268 139.964 2.50668 139.964 3.93601C139.964 5.34401 139.953 6.88001 139.932 8.54401C139.932 10.1867 139.932 11.8293 139.932 13.472C141.084 12.5333 142.215 11.5733 143.324 10.592C144.455 9.61068 145.489 8.68268 146.428 7.80801C147.388 6.91201 148.177 6.12268 148.796 5.44001L151.644 7.36001C150.961 8.00001 150.172 8.69334 149.276 9.44001C148.401 10.1867 147.463 10.944 146.46 11.712C146.887 12.48 147.367 13.3867 147.9 14.432C148.455 15.456 149.02 16.544 149.596 17.696C150.172 18.8267 150.727 19.9573 151.26 21.088C151.793 22.1973 152.273 23.2213 152.7 24.16L146.556 24.8C145.916 22.9653 145.244 21.1733 144.54 19.424C143.857 17.6747 143.175 16.096 142.492 14.688C141.639 15.3067 140.775 15.904 139.9 16.48C139.879 18.3147 139.857 19.9573 139.836 21.408C139.836 22.8373 139.825 23.84 139.804 24.416C139.249 24.4587 138.567 24.4907 137.756 24.512C136.945 24.5333 135.9 24.544 134.62 24.544Z" fill="black"/>
</svg>
